<svg width="31" height="40" viewBox="0 0 31 40" fill="none" xmlns="http://www.w3.org/2000/svg">
<path fill-rule="evenodd" clip-rule="evenodd" d="M15.5311 0C23.9972 0 30.8603 6.86186 30.8603 15.3286C30.8603 15.3286 30.8965 15.8848 30.7822 16.8934C30.7822 16.8978 30.7809 16.9022 30.7809 16.9065C30.7384 17.2678 30.6772 17.689 30.5891 18.1589C30.5609 18.312 30.5316 18.4645 30.4984 18.6176C29.5829 22.9816 26.4144 31.1664 15.5311 39.99C15.4062 39.8694 15.2736 39.7418 15.134 39.6075C10.9417 35.5722 0.391957 25.4178 0.225032 15.7785C0.223136 15.7133 0.218542 15.6487 0.213944 15.5841C0.20793 15.4996 0.201909 15.415 0.201909 15.3286C0.201909 15.3064 0.203487 15.284 0.205064 15.2617C0.206464 15.2418 0.207864 15.222 0.208158 15.2023C0.209037 15.1669 0.206896 15.1314 0.204758 15.0961C0.202335 15.056 0.199917 15.0159 0.201909 14.9761C0.206908 14.9761 0.213783 14.9761 0.219407 14.9786C0.407514 6.67625 7.18438 0 15.5311 0ZM15.8247 19.3732C18.2407 19.3732 20.1993 17.4146 20.1993 14.9986C20.1993 12.5826 18.2407 10.624 15.8247 10.624C13.4087 10.624 11.4501 12.5826 11.4501 14.9986C11.4501 17.4146 13.4087 19.3732 15.8247 19.3732Z" fill="#010202"/>
</svg>
